<?xml version="1.0" encoding="UTF-8"?>
<svg width="20px" height="20px" viewBox="0 0 20 20" version="1.1" xmlns="http://www.w3.org/2000/svg" xmlns:xlink="http://www.w3.org/1999/xlink">
    <title>mdpi/路径</title>
    <g id="页面-1" stroke="none" stroke-width="1" fill="none" fill-rule="evenodd">
        <g id="截图设置" transform="translate(-715.000000, -560.000000)" fill="#E01D1D" fill-rule="nonzero">
            <g id="编组-17" transform="translate(715.000000, 560.000000)">
                <path d="M3.45471285,1.00023013 C3.24536593,1.00023013 3.03578886,1.07997521 2.87624756,1.23992575 L1.23992575,2.87624756 C0.920024751,3.19614848 0.920024751,3.71409547 1.23992575,4.03317814 L7.20674805,10 L1.23992575,15.9668222 C0.920024751,16.2867232 0.920024751,16.8046697 1.23992575,17.1237525 L2.87624756,18.7600743 C3.19614848,19.0799752 3.71409547,19.0799752 4.03317814,18.7600743 L10,12.7932522 L15.9668222,18.7600743 C16.285905,19.0799752 16.8046697,19.0799752 17.1237525,18.7600743 L18.7600743,17.1237525 C19.0799752,16.8038516 19.0799752,16.285905 18.7600743,15.9668222 L12.7932522,10 L18.7600743,4.03317814 C19.0799752,3.71409539 19.0799752,3.19533032 18.7600743,2.87624756 L17.1237525,1.23992575 C16.8038516,0.920024751 16.285905,0.920024751 15.9668222,1.23992575 L10,7.20674805 L4.03317814,1.23992575 C3.87322768,1.07997521 3.66405977,1.00023013 3.45471285,1.00023013 Z" id="路径"></path>
            </g>
        </g>
    </g>
</svg>