<?xml version="1.0" encoding="UTF-8"?>
<svg width="20px" height="20px" viewBox="0 0 20 20" version="1.1" xmlns="http://www.w3.org/2000/svg" xmlns:xlink="http://www.w3.org/1999/xlink">
    <title>mdpi/形状</title>
    <g id="页面-1" stroke="none" stroke-width="1" fill="none" fill-rule="evenodd">
        <g id="截图设置" transform="translate(-752.000000, -560.000000)" fill="#333333" fill-rule="nonzero">
            <g id="编组-16" transform="translate(752.000000, 560.000000)">
                <path d="M6.72727273,0 C5.82318182,0 5.09090909,0.716 5.09090909,1.6 L5.09090909,14.4 C5.09090909,15.284 5.82318182,16 6.72727273,16 L17.3636364,16 C18.2677273,16 19,15.284 19,14.4 L19,5.2 C19,4.988 18.9141163,4.78477496 18.7602981,4.63437504 L14.2602981,0.23437504 C14.1064799,0.08397496 13.8986364,0 13.6818182,0 L6.72727273,0 Z M13.2727273,1.52343752 L17.4419388,5.6 L14.0909091,5.6 C13.6392727,5.6 13.2727273,5.2416 13.2727273,4.8 L13.2727273,1.52343752 Z M2.63636364,4 C1.73227273,4 1,4.716 1,5.6 L1,18.4 C1,19.284 1.73227273,20 2.63636364,20 L13.2727273,20 C14.1768182,20 14.9090909,19.284 14.9090909,18.4 L14.9090909,17.6 L6.72727273,17.6 C4.92236364,17.6 3.45454545,16.1648 3.45454545,14.4 L3.45454545,4 L2.63636364,4 Z" id="形状"></path>
            </g>
        </g>
    </g>
</svg>